<?xml version="1.0" encoding="UTF-8"?>
<svg version="1.1" xmlns="http://www.w3.org/2000/svg" width="512" height="512">
<path d="M0 0 C1.94457658 0.72790657 3.88982424 1.45402258 5.83569336 2.1784668 C9.91998622 3.70303457 13.9995956 5.23927533 18.07568359 6.78564453 C24.04984726 9.05207929 30.03336491 11.2928368 36.01953125 13.52734375 C44.00128104 16.50925938 51.97867811 19.50251824 59.953125 22.50390625 C72.31292399 27.15449431 84.68626415 31.76836328 97.0625 36.375 C99.16976624 37.15956744 101.27702532 37.94415414 103.38427734 38.72875977 C106.61747869 39.93255494 109.85069481 41.13631037 113.08395386 42.33995056 C121.44974339 45.45433808 129.81492592 48.57035277 138.1796875 51.6875 C139.12341343 52.03916292 139.12341343 52.03916292 140.08620453 52.39793015 C147.03675254 54.98800635 153.98673204 57.57959357 160.93554688 60.17431641 C163.38150414 61.0875819 165.82746761 62.00083081 168.2734375 62.9140625 C169.46181213 63.35779205 170.65018677 63.80152161 171.87457275 64.25869751 C178.48025377 66.72362205 185.08974091 69.17782195 191.70445251 71.6184082 C195.46269901 73.00575127 199.21889064 74.39859995 202.97476196 75.7923584 C204.67585216 76.42187913 206.37795531 77.0486706 208.08114624 77.67248535 C210.38616834 78.51688644 212.68753002 79.37060645 214.98828125 80.2265625 C215.6447464 80.46410248 216.30121155 80.70164246 216.97756958 80.94638062 C222.0452722 82.84896721 226.40781694 85.28281694 230.25 89.125 C230.62109375 91.11328125 230.62109375 91.11328125 230.6875 93.4375 C230.72746094 94.19675781 230.76742187 94.95601563 230.80859375 95.73828125 C229.9636617 99.34844547 228.03909692 100.71789604 225.25 103.125 C222.59677203 104.57051643 219.83235643 105.6147088 217.00390625 106.66796875 C215.71632164 107.16504585 215.71632164 107.16504585 214.40272522 107.67216492 C211.3579651 108.84000211 208.30482149 109.98374725 205.25 111.125 C204.07024597 111.56877991 202.89049194 112.01255981 201.67498779 112.4697876 C192.62079505 115.87528334 183.55049853 119.23677258 174.47711563 122.59073639 C170.58450654 124.03033162 166.69303415 125.4729925 162.80151367 126.91552734 C158.08310399 128.66444709 153.36465325 130.41325453 148.64576721 132.16088867 C135.11161888 137.1734716 121.58551727 142.20746048 108.0625 147.25 C103.96488822 148.77746306 99.86720808 150.30474271 95.76953125 151.83203125 C94.79332321 152.19591949 93.81711517 152.55980774 92.81132507 152.9347229 C86.42059283 155.31671608 80.02901863 157.69643581 73.63671875 160.07421875 C72.77549408 160.39458603 71.91426941 160.71495331 71.02694702 161.04502869 C66.74239818 162.63873895 62.45769932 164.23204477 58.17285156 165.82495117 C47.99474115 169.60971023 37.82079836 173.40550474 27.64976883 177.20924568 C23.56402519 178.73696879 19.47786473 180.26357684 15.39171791 181.79022121 C11.37160921 183.29237249 7.35223237 184.79646189 3.33336735 186.3019371 C1.43294916 187.01344962 -0.46783634 187.7239701 -2.36878967 188.43405151 C-4.71287149 189.3096743 -7.05635693 190.18689579 -9.39915466 191.06594849 C-10.44297806 191.45531586 -11.48680145 191.84468323 -12.56225586 192.24584961 C-13.47180527 192.58619736 -14.38135468 192.9265451 -15.31846619 193.27720642 C-23.82269094 196.24234188 -30.47276328 195.30189302 -38.71484375 192.19140625 C-40.00683937 191.72136925 -40.00683937 191.72136925 -41.32493591 191.24183655 C-44.13789056 190.21497645 -46.94380159 189.17016543 -49.75 188.125 C-51.65990721 187.4244947 -53.57023156 186.72512576 -55.48095703 186.02685547 C-61.76533539 183.72470836 -68.03911686 181.39440866 -74.3125 179.0625 C-76.66703532 178.18878039 -79.02160987 177.31516648 -81.3762207 176.44165039 C-104.89472842 167.71303146 -128.39823343 158.94406287 -151.90061951 150.17214966 C-160.19639505 147.07640538 -168.49408864 143.98584883 -176.79296875 140.8984375 C-198.80505336 132.70843993 -220.80414145 124.49110077 -242.75 116.125 C-243.08 130.315 -243.41 144.505 -243.75 159.125 C-242.43 159.785 -241.11 160.445 -239.75 161.125 C-236.10827388 165.44111984 -235.47393956 170.62888756 -235.75 176.125 C-237.31071945 181.52749042 -240.05076157 184.99217438 -244.75 188.125 C-244.08134402 192.48998205 -242.52243696 196.31126647 -240.7734375 200.33203125 C-240.17885739 201.73727927 -239.5851339 203.14288998 -238.9921875 204.54882812 C-238.06123804 206.74450528 -237.12508491 208.93730479 -236.17382812 211.12426758 C-235.25249946 213.2492135 -234.35517828 215.38307019 -233.4609375 217.51953125 C-233.17455414 218.16251663 -232.88817078 218.80550201 -232.59310913 219.4679718 C-230.49845056 224.55086827 -230.45509145 227.89688408 -231.75 233.125 C-234.06384914 236.00331564 -235.57180063 236.10359467 -239.24584961 236.54492188 C-240.6310459 236.578103 -242.01675016 236.59335547 -243.40234375 236.59375 C-244.13949112 236.60136353 -244.87663849 236.60897705 -245.63612366 236.61682129 C-247.19187033 236.62760401 -248.74768928 236.6304828 -250.3034668 236.62597656 C-252.6768531 236.62500436 -255.04700235 236.66663447 -257.41992188 236.7109375 C-258.93488912 236.71614519 -260.44986756 236.71883268 -261.96484375 236.71875 C-262.6701976 236.73514526 -263.37555145 236.75154053 -264.10227966 236.76843262 C-267.95097884 236.71477238 -269.64517763 236.20612198 -272.72265625 233.82446289 C-274.75 231.125 -274.75 231.125 -274.97265625 227.33984375 C-273.64979866 219.80408476 -270.16314565 212.6940124 -267.1875 205.6875 C-266.26355368 203.48738738 -265.34292622 201.28595527 -264.42579651 199.08299255 C-263.85726191 197.71995204 -263.28428258 196.3587551 -262.70640564 194.99964905 C-261.23455705 191.67772725 -261.23455705 191.67772725 -260.75 188.125 C-262.24831948 186.72284007 -262.24831948 186.72284007 -264.125 185.3125 C-268.54723978 181.60496564 -269.55635252 179.09374941 -270.125 173.3125 C-270.00388816 168.75350449 -268.51341145 164.75837432 -265.75 161.125 C-263.77 160.135 -263.77 160.135 -261.75 159.125 C-261.75 142.295 -261.75 125.465 -261.75 108.125 C-263.73 107.795 -265.71 107.465 -267.75 107.125 C-270.890625 105.8203125 -270.890625 105.8203125 -274 104.25 C-275.55460937 103.48042969 -275.55460937 103.48042969 -277.140625 102.6953125 C-279.75 101.125 -279.75 101.125 -281.75 98.125 C-282.15625 96.0390625 -282.15625 96.0390625 -282.25 93.75 C-282.32734375 92.62464844 -282.32734375 92.62464844 -282.40625 91.4765625 C-281.36653304 87.75091006 -278.92243142 86.05474929 -275.75 84.125 C-271.94056804 82.34052043 -268.01806191 80.9255816 -264.0625 79.5 C-262.80309921 79.03547648 -261.54416649 78.56968248 -260.28564453 78.1027832 C-257.41117771 77.03829844 -254.53424184 75.98082857 -251.65576172 74.92724609 C-246.2847601 72.9582482 -240.92528925 70.95873486 -235.56640625 68.95703125 C-226.98115905 65.75113595 -218.39397308 62.55052947 -209.8046875 59.35546875 C-196.52964988 54.41667327 -183.25804705 49.46869269 -169.98712158 44.51885986 C-148.18454837 36.38700463 -126.38045777 28.2592272 -104.57421875 20.13720703 C-102.51822836 19.37142144 -100.46223877 18.60563368 -98.40625 17.83984375 C-97.38934082 17.46108093 -96.37243164 17.08231812 -95.32470703 16.69207764 C-88.54675389 14.1673299 -81.76932795 11.64117096 -74.9921875 9.11424255 C-70.22714557 7.33757528 -65.46196555 5.56127855 -60.69677734 3.78500366 C-58.41448205 2.93413413 -56.13225453 2.08308278 -53.85009766 1.23184204 C-50.70232093 0.05774392 -47.55431133 -1.11572773 -44.40625 -2.2890625 C-42.99925842 -2.8141465 -42.99925842 -2.8141465 -41.56384277 -3.34983826 C-40.27637146 -3.82949791 -40.27637146 -3.82949791 -38.96289062 -4.31884766 C-37.84460876 -4.73585434 -37.84460876 -4.73585434 -36.70373535 -5.1612854 C-23.6212754 -9.94040897 -12.26790137 -4.69699476 0 0 Z " fill="#3281FF" transform="translate(281.75,114.875)"/>
<path d="M0 0 C8.40039886 2.34850521 16.54281714 5.33282466 24.70703125 8.3828125 C26.14080311 8.91589039 27.57466873 9.44871615 29.00862122 9.98130798 C32.82471731 11.39963899 36.63929643 12.82200746 40.45355988 14.24525833 C43.60788175 15.42162918 46.76315409 16.59543892 49.91841507 17.76928806 C70.70541396 25.50344345 91.47353137 33.28687467 112.19848633 41.18603516 C113.05439865 41.51140762 113.91031097 41.83678009 114.79216003 42.17201233 C116.35330471 42.76561347 117.91376364 43.36102307 119.4733429 43.95872498 C132.019081 48.7251075 142.94480203 48.18696694 155.40234375 43.58984375 C156.39345154 43.23442505 157.38455933 42.87900635 158.40570068 42.51281738 C161.60969111 41.35736168 164.80559052 40.18166826 168 39 C169.05700104 38.61039093 170.11400208 38.22078186 171.20303345 37.81936646 C177.88475515 35.35069197 184.5536284 32.84877167 191.21780396 30.3331604 C196.07598643 28.49953157 200.93678011 26.67287021 205.79737854 24.84565735 C209.48804102 23.4581206 213.17835317 22.069655 216.86865234 20.68115234 C226.50121993 17.05829049 236.13819578 13.44732357 245.78063965 9.85083008 C247.61884617 9.16471903 249.45666318 8.47756342 251.29406738 7.78930664 C253.82140784 6.84267688 256.34998098 5.8994175 258.87890625 4.95703125 C259.60551956 4.68405716 260.33213287 4.41108307 261.08076477 4.12983704 C261.76253281 3.87663193 262.44430084 3.62342682 263.14672852 3.36254883 C264.01588646 3.03786369 264.01588646 3.03786369 264.90260315 2.70661926 C267.90440329 1.69530383 270.95084495 0.8558899 274 0 C274.06970929 10.7794908 274.12291723 21.5589274 274.15543652 32.33859825 C274.17104924 37.34479141 274.19220679 42.3508296 274.22631836 47.35693359 C274.25906909 52.19395075 274.27688601 57.03081946 274.28463173 61.867939 C274.29014714 63.70739705 274.30091701 65.54684757 274.31719017 67.38624191 C274.44434323 82.36307901 273.2945259 94.1213277 262.875 105.6875 C255.36388685 112.68868436 245.22681403 115.01981951 235.4375 117.0625 C233.67647949 117.43918823 233.67647949 117.43918823 231.87988281 117.82348633 C219.65059708 120.37848093 207.38562052 122.38166036 195 124 C193.91058105 124.15098145 192.82116211 124.30196289 191.69873047 124.45751953 C138.84399497 131.58011581 83.12394325 127.87184365 31.3125 115.4375 C30.57225586 115.26428223 29.83201172 115.09106445 29.06933594 114.91259766 C19.8354219 112.50987343 11.85088181 107.5717294 6 100 C1.63583535 92.18132289 -0.154505 85.6386661 -0.11352539 76.74316406 C-0.11367142 75.91352646 -0.11381744 75.08388885 -0.1139679 74.22911072 C-0.11327212 71.4912554 -0.10549539 68.75346841 -0.09765625 66.015625 C-0.09579088 64.11562131 -0.09436754 62.21561714 -0.09336853 60.31561279 C-0.08955273 55.31791859 -0.07973041 50.32025351 -0.06866455 45.3225708 C-0.05843031 40.22156162 -0.05386659 35.12054774 -0.04882812 30.01953125 C-0.03810732 20.01300805 -0.02104212 10.00650645 0 0 Z " fill="#3282FF" transform="translate(119,277)"/>
</svg>
